# xmcd
#
# Track frame offsets:
#	150
#	651
#	13976
#	34795
#	35267
#	52770
#	55267
#	66943
#	78548
#	85032
#	96949
#	105699
#	107160
#	108407
#	127107
#
# Disc length: 1750 seconds
#
# Revision: 1
# Processed by: cddbd v1.5.2PL0 Copyright (c) Steve Scherf et al.
# Submitted via: audiograbber 1.83.01
#
DISCID=bf06d40f
DTITLE=John Deights - Thomas Trippenfeld - Through The Years
DYEAR=2001
DGENRE=
TTITLE0=(Chimes)
TTITLE1=Tramp
TTITLE2=Data man
TTITLE3=(Chimes)
TTITLE4=Sympathy
TTITLE5=(Outro Sympathy)
TTITLE6=Meter maid
TTITLE7=Meter maid (Version)
TTITLE8=Between the wars
TTITLE9=Annette
TTITLE10=Sunshine girl
TTITLE11=(Oh man !)
TTITLE12=Technical silence
TTITLE13=Data man (Living Room Remix)
TTITLE14=Happy birthday (Edited version)
EXTD=Recordings made in 1983 except # 11 in 1993.\nAll compositions by Thomas T
EXTD=rippenfeld except # 15 Trad./Trippenfeld.\n(c) Living Room Productions - A
EXTD=us Guter Stube
EXTT0=
EXTT1=
EXTT2=
EXTT3=
EXTT4=
EXTT5=
EXTT6=
EXTT7=
EXTT8=
EXTT9=
EXTT10=
EXTT11=
EXTT12=
EXTT13=
EXTT14=
PLAYORDER=
